<?xml version="1.0" encoding="UTF-8"?>
<svg width="512" height="512" viewBox="0 0 512 512" fill="none" xmlns="http://www.w3.org/2000/svg">
  <defs>
    <linearGradient id="bg" x1="80" y1="64" x2="432" y2="448" gradientUnits="userSpaceOnUse">
      <stop stop-color="#6fd2ff" />
      <stop offset="1" stop-color="#8af1c7" />
    </linearGradient>
    <linearGradient id="glass" x1="164" y1="120" x2="364" y2="344" gradientUnits="userSpaceOnUse">
      <stop stop-color="#ffffff" stop-opacity="0.96" />
      <stop offset="1" stop-color="#ecf6ff" stop-opacity="0.9" />
    </linearGradient>
  </defs>
  <rect width="512" height="512" rx="128" fill="#10233f" />
  <circle cx="392" cy="120" r="56" fill="#ffcd6b" opacity="0.95" />
  <rect x="88" y="104" width="240" height="304" rx="48" fill="url(#glass)" />
  <rect x="120" y="144" width="176" height="24" rx="12" fill="#6fd2ff" opacity="0.65" />
  <rect x="120" y="196" width="128" height="20" rx="10" fill="#4d6079" opacity="0.3" />
  <rect x="120" y="236" width="148" height="20" rx="10" fill="#4d6079" opacity="0.22" />
  <rect x="120" y="276" width="112" height="20" rx="10" fill="#4d6079" opacity="0.18" />
  <path d="M328 264C328 219.817 363.817 184 408 184H424V264C424 308.183 388.183 344 344 344H328V264Z" fill="url(#bg)" />
  <path d="M360 152L388 124" stroke="#ffffff" stroke-width="18" stroke-linecap="round" />
  <path d="M404 180L444 148" stroke="#ffffff" stroke-width="18" stroke-linecap="round" />
  <path d="M424 228H472" stroke="#ffffff" stroke-width="18" stroke-linecap="round" />
  <circle cx="200" cy="360" r="28" fill="#ffcd6b" />
  <circle cx="252" cy="360" r="14" fill="#4d6079" opacity="0.28" />
</svg>
